<?xml version="1.0" encoding="utf-8"?>
<!-- Generator: Adobe Illustrator 23.0.0, SVG Export Plug-In . SVG Version: 6.00 Build 0)  -->
<svg version="1.1" id="图层_1" xmlns="http://www.w3.org/2000/svg" xmlns:xlink="http://www.w3.org/1999/xlink" x="0px" y="0px"
	 viewBox="0 0 32 32" style="enable-background:new 0 0 32 32;" xml:space="preserve">
<style type="text/css">
	.st0{fill:#FFFFFF;}
	.st1{fill:#109BC6;}
</style>
<circle class="st0" cx="15.8" cy="15.8" r="15.2"/>
<g>
	<path class="st1" d="M28.7,6.4C28.7,6.3,28.7,6.3,28.7,6.4c0-0.1-0.1-0.1-0.1-0.2C25.7,2.4,21.1,0,16,0C10.8,0,6.1,2.6,3.2,6.5
		c0,0-0.1,0-0.1,0.1v0.1C1.1,9.3,0,12.5,0,16c0,8.8,7.2,16,16,16s16-7.2,16-16C32,12.4,30.8,9.1,28.7,6.4z M28.4,23.5
		c-0.5-0.3-2-1.3-4.3-2.1c0.3-1.5,0.4-3,0.5-4.6h5.9C30.3,19.2,29.5,21.5,28.4,23.5z M1.6,16.8h5.9c0,1.8,0.2,3.4,0.5,5
		c-1.4,0.5-2.8,1.1-4.2,1.9C2.5,21.6,1.7,19.3,1.6,16.8z M3.9,8.1C4.7,8.6,6.1,9.3,8.1,10c-0.3,1.6-0.6,3.4-0.6,5.3H1.6
		C1.7,12.6,2.5,10.2,3.9,8.1z M16.8,9.5V1.6C19,2.1,20.9,4.8,22,8.5C20.1,9.1,18.4,9.4,16.8,9.5z M22.3,10c0.4,1.6,0.6,3.4,0.6,5.2
		h-6.2V11C18.5,10.9,20.4,10.6,22.3,10z M15.2,1.6v7.9c-2,0-3.8-0.3-5.3-0.6C11,5,13,2.2,15.2,1.6z M10.4,10.6
		c1.3,0.3,2.9,0.5,4.7,0.5h0.1v4.1H9c0.1-1.7,0.2-3.3,0.6-4.8C9.8,10.5,10.1,10.5,10.4,10.6z M9,16.8h6.2v3.4
		c-1.8,0.1-3.7,0.4-5.7,1C9.2,19.8,9.1,18.3,9,16.8z M15.2,21.7v8.6c-2.3-0.5-4.3-3.5-5.4-7.6C11.8,22.1,13.6,21.8,15.2,21.7z
		 M16.8,30.4v-8.7c2.1,0,3.9,0.3,5.5,0.8C21.2,26.7,19.1,29.8,16.8,30.4z M21.4,20.6c-1.3-0.3-2.8-0.5-4.6-0.5v-3.4H23
		c0,1.5-0.2,2.9-0.4,4.2C22.2,20.8,21.8,20.7,21.4,20.6z M24.5,15.2c0-2.1-0.3-4-0.7-5.7c1.3-0.5,2.6-1.1,4-1.8
		c1.5,2.2,2.5,4.7,2.6,7.5H24.5z M26.9,6.5c-1.2,0.6-2.3,1.1-3.4,1.5c-0.7-2.4-1.8-4.4-3-5.8C22.9,3,25.1,4.5,26.9,6.5z M11.6,2.2
		c-1.4,1.5-2.4,3.6-3.2,6.2C6.8,7.9,5.5,7.3,4.8,6.8C6.6,4.7,8.9,3.1,11.6,2.2z M4.6,24.9c1.3-0.7,2.5-1.2,3.7-1.7
		c0.7,2.7,1.9,5,3.2,6.5C8.8,28.9,6.4,27.2,4.6,24.9z M20.4,29.8c1.5-1.6,2.6-4,3.3-6.9c2,0.7,3.4,1.6,3.7,1.9
		C25.7,27.1,23.2,28.9,20.4,29.8z"/>
</g>
</svg>
